<svg xmlns="http://www.w3.org/2000/svg" viewBox="0 0 792 612"><defs><style>.cls-1{fill:#fff;}.cls-2{fill:#ba202b;}</style></defs><title>Artboard 1</title><g id="White"><path class="cls-1" d="M156.85,290.35H112.47a3.11,3.11,0,1,1,0-6.22h44.38a3.11,3.11,0,0,1,0,6.22Z"/><path class="cls-1" d="M158.25,350.72H111.84a3.11,3.11,0,0,1-2.48-5l37.09-49.06a3.11,3.11,0,1,1,5,3.75L118.09,344.5h40.16a3.11,3.11,0,0,1,0,6.22Z"/><path class="cls-1" d="M169.63,351.51a3.11,3.11,0,0,1-2.81-4.43l9.09-19.4a3.11,3.11,0,0,1,2.82-1.79h29a3.11,3.11,0,1,1,0,6.22h-27l-8.25,17.61A3.11,3.11,0,0,1,169.63,351.51Z"/><path class="cls-1" d="M228.64,351.51a3.11,3.11,0,0,1-2.81-1.77L199,293.64,187,319a3.11,3.11,0,0,1-5.63-2.65l14.76-31.3a3.11,3.11,0,0,1,2.8-1.78h0a3.11,3.11,0,0,1,2.8,1.77l29.69,62a3.11,3.11,0,0,1-2.8,4.45Z"/><path class="cls-1" d="M243,308.79a3.11,3.11,0,0,1-3.11-3.11V287.24a3.11,3.11,0,0,1,3.11-3.11h41.5a3.11,3.11,0,0,1,0,6.22H246.06v15.33A3.11,3.11,0,0,1,243,308.79Z"/><path class="cls-1" d="M243,351.51a3.11,3.11,0,0,1-3.11-3.11V317.86a3.11,3.11,0,0,1,3.11-3.11H281a3.11,3.11,0,1,1,0,6.22h-35V348.4A3.11,3.11,0,0,1,243,351.51Z"/><path class="cls-1" d="M298.11,308.79a3.11,3.11,0,0,1-3.11-3.11V287.24a3.11,3.11,0,0,1,3.11-3.11h42.3a3.11,3.11,0,0,1,0,6.22H301.22v15.33A3.11,3.11,0,0,1,298.11,308.79Z"/><path class="cls-1" d="M340.85,350.72H298.11a3.11,3.11,0,0,1-3.11-3.11V317.86a3.11,3.11,0,0,1,3.11-3.11h38.5a3.11,3.11,0,1,1,0,6.22H301.22V344.5h39.63a3.11,3.11,0,1,1,0,6.22Z"/><path class="cls-1" d="M356.58,351.51a3.11,3.11,0,0,1-3.11-3.11V287.24a3.11,3.11,0,1,1,6.22,0V348.4A3.11,3.11,0,0,1,356.58,351.51Z"/><path class="cls-1" d="M496.12,351.51A3.11,3.11,0,0,1,493,348.4V287a3.11,3.11,0,0,1,5.54-1.94l36.74,45.85a3.11,3.11,0,0,1-4.85,3.89l-31.2-38.94V348.4A3.11,3.11,0,0,1,496.12,351.51Z"/><path class="cls-1" d="M545,351.51a3.11,3.11,0,0,1-3.11-3.11V286.24a3.11,3.11,0,0,1,6.22,0V348.4A3.11,3.11,0,0,1,545,351.51Z"/><path class="cls-1" d="M386.89,323.11c13.4-2.08,18.33-11.27,18.33-19.27,0-9.49-7.36-19.71-23.52-19.71H367.89a3.11,3.11,0,0,0,0,6.22H381.7c8.61,0,17.3,4.17,17.3,13.49,0,9.95-9.31,13.49-18,13.49H367.89a3.11,3.11,0,0,0,0,6.22h11.54l20.2,26.73a3.11,3.11,0,1,0,5-3.75Z"/><path class="cls-1" d="M595.53,351.51c-9.16,0-15.56-6.47-15.56-15.73v-.08c0-8.87,6.74-15.82,15.35-15.82a16.33,16.33,0,0,1,10.41,3.27,2.2,2.2,0,0,1-1.28,4,2.29,2.29,0,0,1-1.36-.53,12.06,12.06,0,0,0-7.9-2.6c-6,0-10.74,5.11-10.74,11.63,0,7.14,4.5,11.88,11.2,11.88a13.45,13.45,0,0,0,8-2.7v-6.6h-7.44a2,2,0,0,1,0-4h9.51a2.21,2.21,0,0,1,2.16,2.2v9a2.9,2.9,0,0,1-1.37,2.45A18.61,18.61,0,0,1,595.53,351.51Z"/><path class="cls-1" d="M637.91,351.22a2.44,2.44,0,0,1-2-1.09l-8.17-10.62H620V349a2.18,2.18,0,1,1-4.36,0V322.59a2.21,2.21,0,0,1,2.16-2.2h11.08c3.65,0,6.77,1.1,8.78,3.11a8.66,8.66,0,0,1,2.43,6.2c0,4.59-2.73,7.8-7.52,9l6.86,8.83a2.31,2.31,0,0,1,.66,1.54A2.27,2.27,0,0,1,637.91,351.22ZM620,335.48h8.58c4.31,0,7.1-2.19,7.1-5.58s-2.57-5.41-7.06-5.41H620Z"/><path class="cls-1" d="M649.69,351.22a2.21,2.21,0,0,1-2.16-2.2V322.37a2.18,2.18,0,1,1,4.36,0V349A2.21,2.21,0,0,1,649.69,351.22Z"/><path class="cls-1" d="M679.82,351h-17a2.21,2.21,0,0,1-2.16-2.2V322.37a2.18,2.18,0,1,1,4.36,0V346.9h14.84a2.06,2.06,0,0,1,2,2.07A2,2,0,0,1,679.82,351Z"/><path class="cls-1" d="M706.7,351h-17a2.21,2.21,0,0,1-2.16-2.2V322.37a2.18,2.18,0,1,1,4.36,0V346.9H706.7a2.06,2.06,0,0,1,2,2.07A2,2,0,0,1,706.7,351Z"/></g><g id="Red"><path class="cls-2" d="M470.19,292.21a3.11,3.11,0,0,1-5,2.45,28,28,0,0,0-17.36-6A28.32,28.32,0,0,0,419.52,317a28,28,0,0,0,2.76,12.21,3.11,3.11,0,0,1-5.61,2.69A34.2,34.2,0,0,1,413.3,317a34.55,34.55,0,0,1,34.51-34.51A34.18,34.18,0,0,1,469,289.76,3.1,3.1,0,0,1,470.19,292.21Z"/><path class="cls-2" d="M482.33,317a34.55,34.55,0,0,1-34.51,34.51,34.17,34.17,0,0,1-21.18-7.27,3.11,3.11,0,1,1,3.82-4.91,28,28,0,0,0,17.36,6A28.32,28.32,0,0,0,476.11,317a28,28,0,0,0-2.76-12.21,3.11,3.11,0,1,1,5.61-2.69A34.2,34.2,0,0,1,482.33,317Z"/></g></svg>